<svg width="260" height="540" viewBox="0 0 260 540" fill="none" xmlns="http://www.w3.org/2000/svg">
<circle cx="18" cy="522" r="18" fill="#BB86FC"/>
<circle cx="18" cy="410" r="18" fill="#BB86FC"/>
<circle cx="74" cy="410" r="18" fill="#BB86FC"/>
<circle cx="130" cy="410" r="18" fill="#BB86FC"/>
<circle cx="186" cy="410" r="18" fill="#BB86FC"/>
<circle cx="242" cy="410" r="18" fill="#BB86FC"/>
<circle cx="18" cy="410" r="18" fill="#BB86FC"/>
<circle cx="74" cy="410" r="18" fill="#BB86FC"/>
<circle cx="130" cy="410" r="18" fill="#BB86FC"/>
<circle cx="186" cy="410" r="18" fill="#BB86FC"/>
<circle cx="242" cy="410" r="18" fill="#BB86FC"/>
<circle cx="18" cy="354" r="18" fill="#BB86FC"/>
<circle cx="74" cy="354" r="18" fill="#BB86FC"/>
<circle cx="130" cy="354" r="18" fill="#BB86FC"/>
<circle cx="186" cy="354" r="18" fill="#BB86FC"/>
<circle cx="242" cy="354" r="18" fill="#BB86FC"/>
<circle cx="18" cy="298" r="18" fill="#BB86FC"/>
<circle cx="74" cy="298" r="18" fill="#BB86FC"/>
<circle cx="130" cy="298" r="18" fill="#BB86FC"/>
<circle cx="186" cy="298" r="18" fill="#BB86FC"/>
<circle cx="242" cy="298" r="18" fill="#BB86FC"/>
<circle cx="74" cy="522" r="18" fill="#BB86FC"/>
<circle cx="130" cy="522" r="18" fill="#BB86FC"/>
<circle cx="186" cy="522" r="18" fill="#BB86FC"/>
<circle cx="242" cy="522" r="18" fill="#BB86FC"/>
<circle cx="18" cy="466" r="18" fill="#BB86FC"/>
<circle cx="74" cy="466" r="18" fill="#BB86FC"/>
<circle cx="130" cy="466" r="18" fill="#BB86FC"/>
<circle cx="186" cy="466" r="18" fill="#BB86FC"/>
<circle cx="242" cy="466" r="18" fill="#BB86FC"/>
<circle cx="18" cy="242" r="18" fill="#BB86FC"/>
<circle cx="18" cy="130" r="18" fill="#BB86FC"/>
<circle cx="74" cy="130" r="18" fill="#BB86FC"/>
<circle cx="130" cy="130" r="18" fill="#BB86FC"/>
<circle cx="186" cy="130" r="18" fill="#BB86FC"/>
<circle cx="242" cy="130" r="18" fill="#BB86FC"/>
<circle cx="18" cy="130" r="18" fill="#BB86FC"/>
<circle cx="74" cy="130" r="18" fill="#BB86FC"/>
<circle cx="130" cy="130" r="18" fill="#BB86FC"/>
<circle cx="186" cy="130" r="18" fill="#BB86FC"/>
<circle cx="242" cy="130" r="18" fill="#BB86FC"/>
<circle cx="18" cy="74" r="18" fill="#BB86FC"/>
<circle cx="74" cy="74" r="18" fill="#BB86FC"/>
<circle cx="130" cy="74" r="18" fill="#BB86FC"/>
<circle cx="186" cy="74" r="18" fill="#BB86FC"/>
<circle cx="242" cy="74" r="18" fill="#BB86FC"/>
<circle cx="18" cy="18" r="18" fill="#BB86FC"/>
<circle cx="74" cy="18" r="18" fill="#BB86FC"/>
<circle cx="130" cy="18" r="18" fill="#BB86FC"/>
<circle cx="186" cy="18" r="18" fill="#BB86FC"/>
<circle cx="242" cy="18" r="18" fill="#BB86FC"/>
<circle cx="74" cy="242" r="18" fill="#BB86FC"/>
<circle cx="130" cy="242" r="18" fill="#BB86FC"/>
<circle cx="186" cy="242" r="18" fill="#BB86FC"/>
<circle cx="242" cy="242" r="18" fill="#BB86FC"/>
<circle cx="18" cy="186" r="18" fill="#BB86FC"/>
<circle cx="74" cy="186" r="18" fill="#BB86FC"/>
<circle cx="130" cy="186" r="18" fill="#BB86FC"/>
<circle cx="186" cy="186" r="18" fill="#BB86FC"/>
<circle cx="242" cy="186" r="18" fill="#BB86FC"/>
</svg>
