<svg width="66" height="66" viewBox="0 0 66 66" fill="none" xmlns="http://www.w3.org/2000/svg">
<path fill-rule="evenodd" clip-rule="evenodd" d="M33.0595 0.246765C14.8702 0.246765 0.120605 15.2451 0.120605 33.748C0.120605 48.55 9.5586 61.1079 22.6462 65.5378C24.2924 65.8479 24.8968 64.811 24.8968 63.9262C24.8968 63.1273 24.8662 60.4882 24.8521 57.6888C15.6884 59.7154 13.7548 53.7361 13.7548 53.7361C12.2564 49.8637 10.0975 48.834 10.0975 48.834C7.10897 46.7547 10.3228 46.7975 10.3228 46.7975C13.6304 47.0333 15.3721 50.2498 15.3721 50.2498C18.3099 55.3715 23.0777 53.8908 24.9573 53.0348C25.253 50.8701 26.1066 49.391 27.0486 48.555C19.7324 47.7079 12.0415 44.8352 12.0415 31.9983C12.0415 28.3406 13.3282 25.352 15.4353 23.0059C15.0933 22.1615 13.9659 18.7546 15.7544 14.14C15.7544 14.14 18.5204 13.2396 24.815 17.5741C27.4424 16.8318 30.2602 16.4595 33.0595 16.4468C35.8588 16.4595 38.6788 16.8318 41.3112 17.5741C47.5981 13.2396 50.3602 14.14 50.3602 14.14C52.1532 18.7546 51.0251 22.1615 50.6831 23.0059C52.7951 25.352 54.0732 28.3406 54.0732 31.9983C54.0732 44.8657 46.3675 47.699 39.0328 48.5284C40.2142 49.568 41.267 51.6068 41.267 54.7324C41.267 59.2145 41.2288 62.8222 41.2288 63.9262C41.2288 64.8177 41.8217 65.8623 43.4913 65.5334C56.5719 61.0985 65.9979 48.545 65.9979 33.748C65.9979 15.2451 51.2504 0.246765 33.0595 0.246765Z" fill="white"/>
<path fill-rule="evenodd" clip-rule="evenodd" d="M12.5962 48.3475C12.5237 48.5145 12.2662 48.5639 12.0317 48.4496C11.7928 48.3403 11.6586 48.1134 11.7361 47.9464C11.807 47.775 12.065 47.7278 12.3033 47.8416C12.5428 47.9514 12.6792 48.1805 12.5962 48.3475Z" fill="white"/>
<path fill-rule="evenodd" clip-rule="evenodd" d="M13.9304 49.8609C13.7733 50.0091 13.4662 49.9403 13.2579 49.7062C13.0424 49.4726 13.0021 49.1603 13.1613 49.0099C13.3233 48.8618 13.6212 48.9311 13.8372 49.1647C14.0526 49.401 14.0946 49.7112 13.9304 49.8609Z" fill="white"/>
<path fill-rule="evenodd" clip-rule="evenodd" d="M15.2292 51.7905C15.0273 51.933 14.6973 51.7993 14.4933 51.5014C14.2915 51.2035 14.2915 50.8462 14.4977 50.7031C14.7022 50.56 15.0273 50.6887 15.2341 50.9844C15.4353 51.2867 15.4353 51.6445 15.2292 51.7905Z" fill="white"/>
<path fill-rule="evenodd" clip-rule="evenodd" d="M17.0084 53.6545C16.8279 53.857 16.4433 53.8026 16.1619 53.5263C15.8739 53.2562 15.7937 52.8728 15.9748 52.6703C16.1575 52.4673 16.5442 52.5244 16.8279 52.7985C17.1137 53.0681 17.201 53.4542 17.0084 53.6545Z" fill="white"/>
<path fill-rule="evenodd" clip-rule="evenodd" d="M19.463 54.7369C19.3833 54.9993 19.013 55.1186 18.6399 55.007C18.2673 54.8922 18.0235 54.5849 18.0988 54.3197C18.1762 54.0556 18.5482 53.9313 18.9241 54.0506C19.2961 54.1649 19.5404 54.47 19.463 54.7369Z" fill="white"/>
<path fill-rule="evenodd" clip-rule="evenodd" d="M22.1586 54.9377C22.1679 55.214 21.8515 55.4431 21.4599 55.4475C21.0661 55.457 20.7475 55.2334 20.7432 54.9616C20.7432 54.6825 21.0524 54.4556 21.4462 54.4489C21.8379 54.4412 22.1586 54.6631 22.1586 54.9377Z" fill="white"/>
<path fill-rule="evenodd" clip-rule="evenodd" d="M24.6672 54.5033C24.7141 54.7729 24.4419 55.0498 24.053 55.123C23.6706 55.1946 23.3166 55.0281 23.2681 54.7607C23.2206 54.4844 23.4977 54.2076 23.8795 54.136C24.269 54.0673 24.6175 54.2292 24.6672 54.5033Z" fill="white"/>
</svg>
