<svg width="68" height="68" viewBox="0 0 68 68" fill="none" xmlns="http://www.w3.org/2000/svg">
<path fill-rule="evenodd" clip-rule="evenodd" d="M34 0C15.2224 0 0 15.2224 0 34C0 52.7776 15.2224 68 34 68C52.7776 68 68 52.7776 68 34C68 15.2224 52.7776 0 34 0ZM33.9489 36.8607L21.2482 27.6413V47.0758H19.1263C17.9441 47.0758 17.0044 46.1362 17.0044 44.9539V23.4628C17.0044 23.3729 17.0099 23.2884 17.0204 23.2094C17.0589 22.8722 17.1819 22.5423 17.3985 22.2503C18.0956 21.3106 19.4598 21.0984 20.4297 21.7956L33.9792 31.6471L47.6195 21.6744C48.5592 20.9771 49.893 21.1894 50.5902 22.1594C50.9608 22.6589 51.0744 23.2696 50.9538 23.837V44.9843C50.9538 46.1362 50.0141 47.0758 48.8321 47.0758H46.7102V27.595L33.9489 36.8607Z" fill="white"/>
</svg>
