<svg width="64" height="64" viewBox="0 0 64 64" fill="none" xmlns="http://www.w3.org/2000/svg">
<path fill-rule="evenodd" clip-rule="evenodd" d="M0 32C0 14.3269 14.3269 0 32 0C49.6731 0 64 14.3269 64 32C64 49.6731 49.6731 64 32 64C14.3269 64 0 49.6731 0 32ZM22.6141 26.5038H15.3622V48.2928H22.6141V26.5038ZM23.0917 19.7636C23.0446 17.6272 21.5169 16 19.036 16C16.5552 16 14.9333 17.6272 14.9333 19.7636C14.9333 21.8557 16.5073 23.5298 18.9419 23.5298H18.9882C21.5169 23.5298 23.0917 21.8557 23.0917 19.7636ZM48.7672 35.7997C48.7672 29.107 45.1896 25.9922 40.4175 25.9922C36.5672 25.9922 34.8434 28.107 33.8809 29.5906V26.5044H26.6281C26.7237 28.549 26.6281 48.2933 26.6281 48.2933H33.8809V36.1246C33.8809 35.4734 33.928 34.8238 34.1197 34.3576C34.6438 33.0566 35.8372 31.7097 37.8407 31.7097C40.4659 31.7097 41.5153 33.7077 41.5153 36.6357V48.2928H48.7669L48.7672 35.7997Z" fill="white"/>
</svg>
