<svg width="82" height="57" viewBox="0 0 82 57" fill="none" xmlns="http://www.w3.org/2000/svg">
<rect x="16.8115" y="4.91083" width="3.36172" height="50.0303" fill="white"/>
<rect x="2.77148" y="12.8867" width="3.36172" height="42.0544" fill="white"/>
<rect x="2.77148" y="56.5891" width="3.36172" height="17.4678" transform="rotate(-90 2.77148 56.5891)" fill="white"/>
<rect x="60.7776" y="56.5891" width="3.36172" height="18.3247" transform="rotate(-90 60.7776 56.5891)" fill="white"/>
<rect x="75.6086" y="9.92047" width="3.49355" height="45.0207" fill="white"/>
<path d="M2.7499 14.726L2.7499 9.19525L42.3921 45.7676L40.1214 48.2924L2.7499 14.726Z" fill="white"/>
<path d="M16.8029 4.93173L16.815 9.55912e-06L42.8524 26.0731L40.4713 28.4941L16.8029 4.93173Z" fill="white"/>
<path d="M64.2003 4.86139L64.083 0.0330541L38.6038 25.5677L40.9849 27.9887L64.2003 4.86139Z" fill="white"/>
<path d="M79.0671 11.9309L79.0672 6.06437L38.5811 46.8174L40.9622 49.2384L79.0671 11.9309Z" fill="white"/>
<rect x="60.7776" y="4.91083" width="3.42764" height="50.0303" fill="white"/>
</svg>
