<svg width="1632" height="1164" viewBox="0 0 1632 1164" fill="none" xmlns="http://www.w3.org/2000/svg">
<g clip-path="url(#clip0)">
<rect width="1632" height="1164" fill="#2D2D31"/>
<path d="M416.227 663.604H165.738V1095H24.3809V28.5938H377.408C497.525 28.5938 589.811 55.9375 654.264 110.625C719.205 165.313 751.676 244.902 751.676 349.395C751.676 415.801 733.609 473.662 697.477 522.979C661.832 572.295 612.027 609.16 548.062 633.574L798.551 1086.21V1095H647.672L416.227 663.604ZM165.738 548.613H381.803C451.627 548.613 507.047 530.547 548.062 494.414C589.566 458.281 610.318 409.941 610.318 349.395C610.318 283.477 590.543 232.939 550.992 197.783C511.93 162.627 455.289 144.805 381.07 144.316H165.738V548.613ZM1365.8 816.68H919.02L818.678 1095H673.658L1080.88 28.5938H1203.93L1611.89 1095H1467.6L1365.8 816.68ZM961.5 700.957H1324.05L1142.41 202.178L961.5 700.957Z" fill="white"/>
<path d="M986.893 631.67L1253.84 829.25L871.241 942.995L986.893 631.67Z" fill="#2D2D31"/>
<path d="M1091.37 833.909L1013.5 651.5L1274.41 556.792L1408.43 932.769L1091.37 833.909Z" fill="#2D2D31"/>
<rect x="163" y="505" width="256" height="194" fill="#2D2D31"/>
</g>
<defs>
<clipPath id="clip0">
<rect width="1632" height="1164" fill="white"/>
</clipPath>
</defs>
</svg>
