<?xml version="1.0" standalone="no"?>
<!DOCTYPE svg PUBLIC "-//W3C//DTD SVG 20010904//EN"
 "http://www.w3.org/TR/2001/REC-SVG-20010904/DTD/svg10.dtd">
<svg version="1.0" xmlns="http://www.w3.org/2000/svg"
 width="500.000000pt" height="500.000000pt" viewBox="0 0 500.000000 500.000000"
 preserveAspectRatio="xMidYMid meet">
<metadata>
Created by potrace 1.16, written by Peter Selinger 2001-2019
</metadata>
<g transform="translate(0.000000,500.000000) scale(0.100000,-0.100000)"
fill="#000000" stroke="none">
<path d="M1760 2555 l0 -795 795 0 795 0 0 795 0 795 -795 0 -795 0 0 -795z
m1149 338 c33 -126 168 -573 186 -617 15 -36 34 -49 88 -60 24 -6 27 -11 27
-44 0 -20 -4 -42 -8 -49 -5 -8 -53 -11 -152 -11 -80 -1 -158 -4 -172 -7 -33
-8 -47 15 -41 66 5 36 6 37 54 41 27 3 52 8 56 12 7 6 -17 108 -38 162 l-10
27 -111 -7 c-62 -4 -115 -11 -118 -17 -4 -5 -17 -41 -30 -80 -28 -85 -23 -92
63 -99 l62 -5 -2 -44 c-1 -24 -5 -46 -8 -49 -8 -8 -344 -7 -352 1 -3 4 -1 30
5 59 l11 53 -64 115 c-61 111 -64 115 -96 115 l-34 0 -3 -95 c-4 -119 1 -140
32 -140 54 0 67 -23 50 -87 -6 -23 -9 -23 -171 -23 -152 0 -164 1 -159 18 2 9
7 31 11 49 5 25 13 33 38 39 59 12 57 1 57 335 l0 309 -39 0 c-45 0 -51 10
-42 64 l6 38 195 0 c231 0 264 -7 331 -72 37 -36 49 -56 58 -97 20 -97 -22
-194 -115 -262 l-51 -37 50 -77 c27 -43 51 -76 53 -75 1 2 52 134 113 293 61
160 114 297 119 305 8 13 75 37 112 39 12 1 22 -23 39 -86z"/>
<path d="M2821 2921 c-21 -6 -39 -45 -143 -319 -76 -197 -117 -319 -113 -330
5 -12 17 12 38 75 37 108 27 103 213 103 l123 0 25 -82 c41 -135 42 -143 13
-172 -15 -14 -37 -26 -51 -26 -14 0 -27 -3 -29 -7 -3 -5 56 -7 130 -5 74 2
133 6 130 8 -3 3 -20 13 -38 22 -18 10 -41 28 -51 42 -20 27 -67 173 -159 489
-32 112 -60 205 -61 206 -2 1 -14 -1 -27 -4z m57 -265 c43 -143 51 -180 40
-187 -18 -12 -268 -11 -268 0 0 7 72 213 125 359 3 7 15 12 27 10 20 -3 29
-24 76 -182z"/>
<path d="M2753 2628 c-22 -62 -37 -117 -33 -122 8 -9 150 2 150 11 0 14 -63
209 -69 216 -5 4 -26 -43 -48 -105z"/>
<path d="M2078 2907 c18 -7 37 -19 42 -27 14 -22 13 -636 -1 -662 -6 -11 -29
-28 -52 -39 l-42 -19 120 1 c108 0 117 1 90 13 -17 7 -36 20 -43 29 -19 22
-26 110 -17 211 l7 86 71 0 72 0 70 -130 c39 -72 74 -129 79 -127 5 2 14 10
19 19 8 11 -7 43 -62 131 -40 64 -70 120 -67 125 3 5 -8 6 -25 4 -16 -2 -59
-1 -96 3 l-66 7 7 170 c4 94 11 179 17 189 9 17 6 19 -24 19 -19 0 -56 2 -83
5 -49 5 -49 5 -16 -8z"/>
<path d="M2280 2911 c83 -10 107 -18 149 -48 83 -63 82 -202 -2 -292 l-32 -35
30 18 c107 65 151 187 99 276 -34 60 -91 83 -208 86 -88 2 -93 2 -36 -5z"/>
<path d="M2236 2786 c-3 -45 -6 -111 -6 -148 l0 -68 43 -2 c63 -2 76 0 102 19
63 47 87 163 44 217 -28 36 -53 47 -119 55 l-57 7 -7 -80z"/>
</g>
</svg>
