<?xml version="1.0" standalone="no"?>
<!DOCTYPE svg PUBLIC "-//W3C//DTD SVG 20010904//EN"
 "http://www.w3.org/TR/2001/REC-SVG-20010904/DTD/svg10.dtd">
<svg version="1.0" xmlns="http://www.w3.org/2000/svg"
 width="500.000000pt" height="500.000000pt" viewBox="0 0 500.000000 500.000000"
 preserveAspectRatio="xMidYMid meet">
<metadata>
Created by potrace 1.16, written by Peter Selinger 2001-2019
</metadata>
<g transform="translate(0.000000,500.000000) scale(0.100000,-0.100000)"
fill="#fff" stroke="none">
<path d="M0 2500 l0 -2500 2500 0 2500 0 0 2500 0 2500 -2500 0 -2500 0 0
-2500z m3654 1708 c189 -707 640 -2210 757 -2522 57 -154 144 -211 347 -232
l70 -6 22 -49 23 -48 -24 -141 c-13 -78 -26 -146 -30 -152 -4 -7 -99 -7 -295
-1 -400 12 -729 -1 -1025 -43 l-46 -6 -24 61 c-25 61 -25 62 -12 194 7 72 15
138 18 145 2 6 20 12 39 12 19 0 88 7 153 15 221 29 234 37 221 141 -4 38 -45
191 -91 339 l-82 270 -320 -1 c-268 0 -559 -15 -573 -29 -11 -11 -182 -511
-192 -560 -15 -78 -3 -110 47 -133 31 -13 81 -17 259 -20 l221 -4 22 -46 22
-46 -22 -158 -22 -159 -156 7 c-138 5 -180 3 -356 -21 -230 -31 -278 -30 -372
14 -62 29 -72 31 -187 31 -66 0 -164 -5 -216 -10 -52 -5 -97 -7 -99 -4 -11 10
59 397 74 408 12 9 -29 89 -240 471 l-254 460 -129 3 -130 3 -7 -365 c-8 -369
-4 -454 20 -514 18 -42 41 -49 176 -59 l112 -8 25 -45 25 -45 -34 -155 -34
-155 -130 5 c-215 8 -985 3 -1058 -7 -37 -5 -67 -6 -67 -3 0 7 66 340 75 376
4 19 16 23 87 33 190 27 240 55 257 144 12 62 27 2140 16 2246 -10 104 -11
105 -171 96 l-133 -7 -25 50 -25 50 25 158 c14 87 26 159 27 160 1 1 134 -3
294 -9 222 -8 381 -8 655 2 385 13 461 10 623 -29 113 -27 187 -54 273 -101
306 -164 457 -453 421 -804 -13 -122 -33 -192 -89 -310 -98 -205 -269 -383
-497 -517 -44 -26 -71 -48 -68 -55 6 -18 365 -586 379 -600 8 -9 121 277 465
1177 l454 1190 36 11 c226 65 323 87 381 88 l65 1 49 -182z"/>
<path d="M3351 4164 c-46 -12 -85 -25 -88 -27 -7 -8 -923 -2411 -923 -2423 0
-6 14 -30 31 -54 l32 -43 23 79 c13 43 67 203 121 354 l99 275 93 12 c206 25
370 33 701 33 262 0 350 -3 362 -12 13 -11 175 -519 217 -683 19 -72 24 -178
11 -225 -16 -61 -78 -121 -153 -149 -57 -21 -206 -51 -253 -51 -18 0 -24 -6
-24 -21 0 -15 5 -19 18 -15 62 18 358 31 685 30 349 -1 367 0 367 17 0 12 -10
21 -27 25 -147 33 -216 68 -287 145 -70 75 -93 120 -157 306 -155 455 -567
1836 -719 2411 -13 49 -12 49 -129 16z m228 -1022 c118 -391 212 -714 209
-717 -3 -3 -88 -12 -189 -20 -130 -11 -294 -14 -555 -13 l-370 3 261 733 260
733 85 -3 84 -3 215 -713z"/>
<path d="M3264 3506 c-4 -10 -80 -224 -170 -475 l-162 -456 157 -3 c216 -5
461 7 461 22 0 6 -63 218 -139 471 -96 318 -142 454 -147 441z"/>
<path d="M1250 4159 c-85 -5 -318 -8 -517 -7 -362 3 -373 2 -373 -28 0 -2 31
-4 69 -4 86 0 146 -21 193 -67 78 -76 73 4 76 -1223 3 -1107 0 -1235 -33
-1332 -21 -61 -85 -133 -146 -164 -27 -13 -84 -33 -127 -43 -53 -12 -78 -23
-80 -34 -3 -15 36 -17 437 -19 407 -3 440 -2 444 14 4 14 -4 18 -42 23 -146
20 -229 77 -265 185 -25 72 -31 289 -21 757 l7 353 273 0 273 0 282 -512 c155
-282 289 -520 297 -528 13 -13 18 -11 43 19 16 18 42 59 58 90 l30 56 -246
390 c-136 215 -266 420 -289 457 l-42 67 105 50 c434 208 660 517 641 881 -12
241 -123 407 -347 520 -173 87 -387 118 -700 99z m112 -34 c149 -20 243 -46
358 -102 79 -38 109 -60 178 -128 94 -94 138 -175 167 -309 26 -118 17 -332
-19 -441 -50 -154 -151 -292 -288 -396 -102 -76 -231 -139 -284 -138 -21 0
-163 12 -314 27 l-275 27 -3 75 c-9 199 41 1208 63 1285 15 53 43 87 85 104
38 15 205 13 332 -4z"/>
<path d="M1110 3919 c0 -24 -7 -161 -15 -304 -8 -143 -18 -378 -21 -522 l-7
-263 24 0 c13 0 105 -9 204 -19 l180 -19 55 28 c191 96 319 257 355 444 52
269 -30 481 -223 584 -119 64 -243 93 -454 108 l-98 7 0 -44z"/>
<path d="M2215 1478 c-14 -21 -44 -57 -67 -79 l-41 -39 55 -55 55 -55 165 0
c91 0 187 -3 214 -6 l49 -5 -65 24 c-103 37 -159 74 -252 168 l-87 87 -26 -40z"/>
</g>
</svg>
