<svg width="69" height="69" viewBox="0 0 69 69" fill="none" xmlns="http://www.w3.org/2000/svg">
<path fill-rule="evenodd" clip-rule="evenodd" d="M0 34.5C0 15.4462 15.4462 0 34.5 0C53.5538 0 69 15.4462 69 34.5C69 53.5538 53.5538 69 34.5 69C15.4462 69 0 53.5538 0 34.5ZM33.4667 28.042L33.5391 29.2358L32.3325 29.0896C27.9405 28.5293 24.1035 26.629 20.8457 23.4375L19.253 21.8539L18.8427 23.0233C17.974 25.6301 18.529 28.3831 20.3389 30.2347C21.3042 31.2579 21.087 31.4041 19.4219 30.795C18.8427 30.6001 18.3359 30.4539 18.2877 30.527C18.1188 30.6976 18.6979 32.9146 19.1564 33.7917C19.7839 35.0098 21.0629 36.2036 22.4625 36.9101L23.645 37.4704L22.2453 37.4948C20.8939 37.4948 20.8457 37.5192 20.9905 38.0308C21.4731 39.6144 23.3795 41.2954 25.5032 42.0263L26.9993 42.5379L25.6962 43.3175C23.7656 44.4382 21.4972 45.0716 19.2288 45.1204C18.1429 45.1447 17.25 45.2422 17.25 45.3153C17.25 45.5589 20.1941 46.9232 21.9075 47.4592C27.0476 49.0428 33.153 48.3606 37.7381 45.6563C40.9959 43.7317 44.2537 39.9067 45.7741 36.2036C46.5946 34.2302 47.4151 30.6245 47.4151 28.8947C47.4151 27.774 47.4874 27.6279 48.8388 26.2879C49.6352 25.5083 50.3833 24.6556 50.5281 24.412C50.7694 23.9491 50.7453 23.9491 49.5145 24.3632C47.4633 25.0941 47.1737 24.9967 48.1873 23.9004C48.9354 23.1207 49.8283 21.7077 49.8283 21.2935C49.8283 21.2204 49.4663 21.3423 49.056 21.5615C48.6216 21.8052 47.6564 22.1706 46.9324 22.3899L45.6293 22.804L44.4468 22.0001C43.7952 21.5615 42.8782 21.0743 42.3956 20.9281C41.1648 20.587 39.2825 20.6357 38.1725 21.0255C35.156 22.1219 33.2495 24.948 33.4667 28.042Z" fill="white"/>
</svg>
